<svg width="112" height="18" viewBox="0 0 112 18" fill="none" xmlns="http://www.w3.org/2000/svg">
<path d="M8.093 3.602C10.928 3.602 13.994 5.828 13.994 9.272C13.994 12.149 11.495 14.963 8.093 14.963C5.195 14.963 2.213 12.653 2.213 9.272C2.213 6.395 4.733 3.602 8.093 3.602ZM8.093 1.502C3.809 1.502 0.113 4.988 0.113 9.272C0.113 13.577 3.809 17.063 8.093 17.063C12.398 17.063 16.094 13.577 16.094 9.272C16.094 4.988 12.398 1.502 8.093 1.502ZM20.7809 5.24H18.6809V17H20.7809V5.24ZM18.4079 2.279C18.4079 2.951 18.9959 3.476 19.7309 3.476C20.4659 3.476 21.0749 2.951 21.0749 2.279C21.0749 1.607 20.4659 1.061 19.7309 1.061C18.9959 1.061 18.4079 1.607 18.4079 2.279ZM28.4558 17.063C31.7948 17.063 33.9158 15.572 33.9158 13.367C33.9158 10.805 31.8578 9.902 28.4558 9.902C26.0618 9.902 25.4738 9.314 25.4738 8.579C25.4738 7.76 26.5868 7.088 28.4558 7.088C29.8838 7.088 30.5768 7.298 31.2068 7.634L31.5218 8.474H33.1388V6.395C33.0758 6.353 31.1228 5.177 28.4558 5.177C25.4948 5.177 23.3318 6.689 23.3318 8.579C23.3318 10.721 24.7598 11.96 28.4558 11.96C31.3538 11.96 31.7528 12.59 31.7528 13.367C31.7528 14.648 30.1148 15.173 28.4558 15.173C25.9778 15.173 24.3818 13.997 24.0038 13.724L22.8908 15.215C22.9958 15.299 25.2638 17.063 28.4558 17.063ZM42.1977 7.172C43.6677 7.172 44.4657 8.285 44.4657 9.524V17H46.5657V9.65C46.5657 6.647 44.6757 5.177 42.0507 5.177C40.7067 5.177 39.2997 5.975 37.9977 6.962V0.556999H35.8977V17H37.9977V9.041C39.4257 7.907 40.7277 7.172 42.1977 7.172ZM51.194 5.24H49.094V17H51.194V5.24ZM48.821 2.279C48.821 2.951 49.409 3.476 50.144 3.476C50.879 3.476 51.488 2.951 51.488 2.279C51.488 1.607 50.879 1.061 50.144 1.061C49.409 1.061 48.821 1.607 48.821 2.279Z" fill="#404040"/>
<path d="M60.7749 3.581C62.0139 3.581 63.4209 3.77 64.5129 4.274L64.7649 5.534H66.6129V2.993C64.9329 1.943 62.6229 1.481 60.7749 1.481C58.1919 1.481 54.3699 2.72 54.3699 5.723C54.3699 9.209 57.9819 9.902 61.0899 9.902C63.4419 9.902 65.1639 10.49 65.1639 12.359C65.1639 13.64 63.4419 14.963 60.6279 14.963C58.2549 14.963 56.3859 14.144 55.0209 12.8L53.7819 14.627C55.5039 16.139 57.7509 17.063 60.6489 17.063C63.9249 17.063 67.4949 15.257 67.4949 12.359C67.4949 8.642 64.3869 7.739 60.9849 7.739C58.6749 7.739 56.7009 7.34 56.7009 5.723C56.7009 4.547 58.6749 3.581 60.7749 3.581ZM71.7535 5.24H69.6535V12.59C69.6535 15.236 71.2915 17.063 74.3995 17.063C75.8065 17.063 77.3185 16.139 78.6835 15.089L79.0615 17H80.7415V5.24H78.6415V13.031C77.1505 14.27 75.9115 15.068 74.3995 15.068C72.4675 15.068 71.7535 13.745 71.7535 12.59V5.24ZM88.195 17.063C91.534 17.063 93.655 15.572 93.655 13.367C93.655 10.805 91.597 9.902 88.195 9.902C85.801 9.902 85.213 9.314 85.213 8.579C85.213 7.76 86.326 7.088 88.195 7.088C89.623 7.088 90.316 7.298 90.946 7.634L91.261 8.474H92.878V6.395C92.815 6.353 90.862 5.177 88.195 5.177C85.234 5.177 83.071 6.689 83.071 8.579C83.071 10.721 84.499 11.96 88.195 11.96C91.093 11.96 91.492 12.59 91.492 13.367C91.492 14.648 89.854 15.173 88.195 15.173C85.717 15.173 84.121 13.997 83.743 13.724L82.63 15.215C82.735 15.299 85.003 17.063 88.195 17.063ZM101.937 7.172C103.407 7.172 104.205 8.285 104.205 9.524V17H106.305V9.65C106.305 6.647 104.415 5.177 101.79 5.177C100.446 5.177 99.0389 5.975 97.7369 6.962V0.556999H95.6369V17H97.7369V9.041C99.1649 7.907 100.467 7.172 101.937 7.172ZM110.933 5.24H108.833V17H110.933V5.24ZM108.56 2.279C108.56 2.951 109.148 3.476 109.883 3.476C110.618 3.476 111.227 2.951 111.227 2.279C111.227 1.607 110.618 1.061 109.883 1.061C109.148 1.061 108.56 1.607 108.56 2.279Z" fill="#F0AF3B"/>
</svg>
