<svg width="40" height="40" viewBox="0 0 40 40" fill="none" xmlns="http://www.w3.org/2000/svg">
<circle cx="20" cy="20" r="20" fill="#F7F7F7"/>
<path d="M28.9045 24.0311C28.8827 23.9854 28.8624 23.9474 28.8435 23.917C28.5312 23.3693 27.9345 22.6971 27.0535 21.9001L27.0349 21.8819L27.0256 21.8729L27.0162 21.8637H27.0067C26.6069 21.4926 26.3537 21.2431 26.2477 21.1153C26.0537 20.872 26.0102 20.6256 26.1163 20.376C26.1912 20.1874 26.4726 19.7892 26.9597 19.1807C27.216 18.8582 27.419 18.5998 27.5688 18.4051C28.6498 17.0057 29.1185 16.1115 28.9747 15.7221L28.9188 15.6311C28.8813 15.5763 28.7845 15.5262 28.6285 15.4805C28.4721 15.4349 28.2722 15.4274 28.0285 15.4578L25.3295 15.4759C25.2858 15.4608 25.2233 15.4622 25.142 15.4805C25.0607 15.4988 25.0201 15.508 25.0201 15.508L24.9731 15.5308L24.9358 15.5583C24.9046 15.5764 24.8702 15.6084 24.8327 15.654C24.7954 15.6995 24.7642 15.7529 24.7392 15.8137C24.4454 16.5498 24.1113 17.2343 23.7363 17.8669C23.5051 18.2442 23.2928 18.5711 23.0989 18.848C22.9053 19.1247 22.7428 19.3286 22.6117 19.4593C22.4804 19.5901 22.3619 19.6949 22.2555 19.7741C22.1492 19.8533 22.0681 19.8868 22.012 19.8745C21.9557 19.8623 21.9027 19.8501 21.8525 19.838C21.7651 19.7832 21.6947 19.7087 21.6417 19.6144C21.5885 19.5201 21.5526 19.4014 21.5339 19.2585C21.5153 19.1154 21.5042 18.9923 21.5011 18.8889C21.4982 18.7855 21.4995 18.6394 21.5058 18.4508C21.5123 18.2621 21.5153 18.1345 21.5153 18.0675C21.5153 17.8363 21.5199 17.5854 21.5292 17.3146C21.5386 17.0439 21.5463 16.8294 21.5527 16.6714C21.559 16.5132 21.562 16.3458 21.562 16.1694C21.562 15.993 21.551 15.8546 21.5292 15.7542C21.5076 15.6539 21.4746 15.5565 21.431 15.4621C21.3872 15.3678 21.3231 15.2949 21.2389 15.2431C21.1546 15.1914 21.0497 15.1504 20.925 15.1199C20.5938 15.0469 20.1721 15.0074 19.6596 15.0013C18.4976 14.9892 17.7509 15.0622 17.4198 15.2204C17.2886 15.2872 17.1699 15.3786 17.0637 15.4941C16.9512 15.628 16.9355 15.701 17.0167 15.713C17.3917 15.7677 17.6571 15.8986 17.8133 16.1054L17.8696 16.215C17.9134 16.2941 17.9571 16.4341 18.0009 16.6348C18.0445 16.8355 18.0727 17.0576 18.0852 17.3008C18.1163 17.745 18.1163 18.1252 18.0852 18.4415C18.0539 18.758 18.0243 19.0043 17.9961 19.1807C17.9679 19.3572 17.9258 19.5001 17.8696 19.6096C17.8133 19.7191 17.7758 19.786 17.7571 19.8103C17.7383 19.8346 17.7227 19.8499 17.7103 19.8559C17.6291 19.8862 17.5446 19.9017 17.4572 19.9017C17.3697 19.9017 17.2635 19.859 17.1386 19.7738C17.0137 19.6886 16.884 19.5716 16.7497 19.4225C16.6153 19.2734 16.4638 19.065 16.2951 18.7974C16.1264 18.5297 15.9515 18.2134 15.7703 17.8484L15.6204 17.5836C15.5267 17.4133 15.3986 17.1654 15.2362 16.84C15.0736 16.5144 14.93 16.1995 14.8051 15.8953C14.7551 15.7676 14.6801 15.6703 14.5802 15.6034L14.5333 15.5759C14.5021 15.5516 14.452 15.5258 14.3834 15.4984C14.3146 15.4709 14.2428 15.4512 14.1678 15.4391L11.5999 15.4572C11.3375 15.4572 11.1595 15.5151 11.0657 15.6307L11.0282 15.6854C11.0095 15.7159 11 15.7645 11 15.8315C11 15.8984 11.0187 15.9806 11.0563 16.0778C11.4311 16.9357 11.8388 17.7631 12.2792 18.56C12.7197 19.357 13.1024 19.999 13.4272 20.4854C13.7521 20.9722 14.0832 21.4316 14.4206 21.8634C14.7581 22.2954 14.9814 22.5722 15.0907 22.6938C15.2001 22.8156 15.286 22.9067 15.3485 22.9676L15.5828 23.1865C15.7328 23.3326 15.953 23.5075 16.2435 23.7112C16.5341 23.9151 16.8558 24.1159 17.2088 24.3137C17.5619 24.5113 17.9726 24.6725 18.4413 24.7972C18.9099 24.922 19.3659 24.9721 19.8096 24.948H20.8873C21.1059 24.9296 21.2715 24.8626 21.3841 24.7471L21.4214 24.7014C21.4465 24.6651 21.4699 24.6087 21.4916 24.5328C21.5135 24.4567 21.5244 24.3729 21.5244 24.2818C21.518 24.0203 21.5385 23.7845 21.5852 23.5747C21.6319 23.3649 21.6852 23.2067 21.7447 23.1001C21.8042 22.9937 21.8714 22.9039 21.9461 22.8311C22.021 22.7581 22.0744 22.7139 22.1057 22.6987C22.1368 22.6834 22.1617 22.673 22.1804 22.6668C22.3304 22.6181 22.5068 22.6652 22.7101 22.8083C22.9132 22.9513 23.1037 23.1278 23.2818 23.3376C23.4599 23.5476 23.6739 23.7832 23.9237 24.0448C24.1738 24.3064 24.3924 24.5009 24.5798 24.6289L24.7671 24.7384C24.8922 24.8114 25.0547 24.8784 25.2547 24.9392C25.4543 25 25.6292 25.0152 25.7793 24.9848L28.1784 24.9484C28.4157 24.9484 28.6004 24.9101 28.7314 24.8342C28.8626 24.7582 28.9405 24.6744 28.9657 24.5833C28.9908 24.492 28.9921 24.3885 28.9704 24.2728C28.9482 24.1574 28.9263 24.0767 28.9045 24.0311Z" fill="#4A76A8"/>
</svg>
