<svg width="40" height="40" viewBox="0 0 40 40" fill="none" xmlns="http://www.w3.org/2000/svg">
<circle cx="20" cy="20" r="20" fill="#F7F7F7"/>
<path d="M24.0326 11H15.9673C13.2283 11 11 13.2284 11 15.9674V24.0327C11 26.7718 13.2283 29.0001 15.9673 29.0001H24.0326C26.7718 29.0001 29.0001 26.7717 29.0001 24.0327V15.9674C29.0002 13.2284 26.7718 11 24.0326 11ZM27.4031 24.0327C27.4031 25.8911 25.8911 27.403 24.0327 27.403H15.9673C14.1089 27.4031 12.5971 25.8911 12.5971 24.0327V15.9674C12.5971 14.109 14.1089 12.5971 15.9673 12.5971H24.0326C25.891 12.5971 27.403 14.109 27.403 15.9674V24.0327H27.4031Z" fill="url(#paint0_linear_1_758)"/>
<path d="M20 15.3621C17.4425 15.3621 15.3618 17.4427 15.3618 20.0003C15.3618 22.5577 17.4425 24.6382 20 24.6382C22.5575 24.6382 24.6381 22.5577 24.6381 20.0003C24.6381 17.4427 22.5575 15.3621 20 15.3621ZM20 23.041C18.3232 23.041 16.9589 21.677 16.9589 20.0002C16.9589 18.3232 18.3231 16.959 20 16.959C21.6769 16.959 23.0411 18.3232 23.0411 20.0002C23.0411 21.677 21.6768 23.041 20 23.041Z" fill="url(#paint1_linear_1_758)"/>
<path d="M24.8328 14.0078C24.5251 14.0078 24.2228 14.1324 24.0055 14.3507C23.7871 14.5679 23.6616 14.8702 23.6616 15.179C23.6616 15.4868 23.7873 15.7891 24.0055 16.0073C24.2227 16.2245 24.5251 16.3502 24.8328 16.3502C25.1416 16.3502 25.4429 16.2245 25.6611 16.0073C25.8794 15.7891 26.004 15.4867 26.004 15.179C26.004 14.8702 25.8794 14.5679 25.6611 14.3507C25.4439 14.1324 25.1416 14.0078 24.8328 14.0078Z" fill="url(#paint2_linear_1_758)"/>
<defs>
<linearGradient id="paint0_linear_1_758" x1="11" y1="11" x2="22.3849" y2="32.7762" gradientUnits="userSpaceOnUse">
<stop stop-color="#4366C9"/>
<stop offset="0.187041" stop-color="#AA38AB"/>
<stop offset="0.548138" stop-color="#F64F51"/>
<stop offset="0.745246" stop-color="#FF8E48"/>
<stop offset="1" stop-color="#FF7E45"/>
</linearGradient>
<linearGradient id="paint1_linear_1_758" x1="15.3618" y1="15.3621" x2="21.2288" y2="26.5843" gradientUnits="userSpaceOnUse">
<stop stop-color="#4366C9"/>
<stop offset="0.187041" stop-color="#AA38AB"/>
<stop offset="0.548138" stop-color="#F64F51"/>
<stop offset="0.745246" stop-color="#FF8E48"/>
<stop offset="1" stop-color="#FF7E45"/>
</linearGradient>
<linearGradient id="paint2_linear_1_758" x1="23.6616" y1="14.0078" x2="25.1431" y2="16.8416" gradientUnits="userSpaceOnUse">
<stop stop-color="#4366C9"/>
<stop offset="0.187041" stop-color="#AA38AB"/>
<stop offset="0.548138" stop-color="#F64F51"/>
<stop offset="0.745246" stop-color="#FF8E48"/>
<stop offset="1" stop-color="#FF7E45"/>
</linearGradient>
</defs>
</svg>
