<svg width="40" height="40" viewBox="0 0 40 40" fill="none" xmlns="http://www.w3.org/2000/svg">
<circle cx="20" cy="20" r="20" fill="#F7F7F7"/>
<path d="M18.6481 24.0432C17.2126 23.8935 15.9183 23.5399 14.8101 22.6732C14.6726 22.5654 14.5306 22.4614 14.4051 22.341C13.9201 21.8751 13.8712 21.3416 14.255 20.7918C14.5834 20.3213 15.1345 20.1954 15.7074 20.4656C15.8184 20.518 15.9241 20.5833 16.0253 20.6535C18.0906 22.0726 20.9277 22.1117 23.0007 20.7173C23.2061 20.5598 23.4256 20.4315 23.6801 20.3659C24.1748 20.2389 24.6362 20.4206 24.9017 20.8535C25.205 21.3478 25.2011 21.8303 24.8274 22.2141C24.2541 22.8026 23.5647 23.2283 22.7986 23.5254C22.0743 23.8062 21.2809 23.9476 20.4956 24.0414C20.6141 24.1704 20.67 24.2338 20.744 24.3083C21.8103 25.3796 22.8812 26.4465 23.944 27.5211C24.3061 27.8872 24.3818 28.3413 24.1824 28.7671C23.9644 29.2326 23.4764 29.5388 22.998 29.5061C22.6949 29.4851 22.4585 29.3342 22.2484 29.1226C21.4438 28.3129 20.624 27.5182 19.8356 26.6932C19.6062 26.4533 19.4958 26.4986 19.2934 26.7069C18.4839 27.5403 17.6612 28.3608 16.8336 29.1767C16.4621 29.5431 16.0199 29.609 15.5889 29.3998C15.1309 29.1777 14.8394 28.7101 14.8619 28.2402C14.8774 27.9224 15.0337 27.6795 15.2519 27.4617C16.3071 26.4081 17.3594 25.3517 18.4121 24.2963C18.4817 24.2261 18.5467 24.1516 18.6481 24.0432Z" fill="#EE8208"/>
<path d="M19.5225 20.3729C16.9616 20.3642 14.8616 18.2411 14.8765 15.6761C14.8913 13.0827 16.9926 10.9928 19.5788 11C22.1702 11.007 24.2502 13.1269 24.2372 15.7473C24.224 18.3071 22.1095 20.3818 19.5225 20.3729ZM21.85 15.6823C21.8455 14.4087 20.8312 13.3948 19.5602 13.3936C18.2784 13.3923 17.255 14.4246 17.2649 15.7098C17.2744 16.9786 18.2974 17.9853 19.572 17.9807C20.8427 17.9762 21.8543 16.9557 21.85 15.6823Z" fill="#EE8208"/>
</svg>
