<svg width="40" height="40" viewBox="0 0 40 40" fill="none" xmlns="http://www.w3.org/2000/svg">
<circle cx="20" cy="20" r="20" fill="#F7F7F7"/>
<path d="M17.8805 15.0988C17.8805 15.502 17.8805 17.3017 17.8805 17.3017H16.2666V19.9954H17.8805V28H21.1958V19.9956H23.4205C23.4205 19.9956 23.6289 18.704 23.7299 17.2917C23.4403 17.2917 21.2083 17.2917 21.2083 17.2917C21.2083 17.2917 21.2083 15.7246 21.2083 15.45C21.2083 15.1747 21.5698 14.8044 21.9271 14.8044C22.2837 14.8044 23.0363 14.8044 23.7334 14.8044C23.7334 14.4377 23.7334 13.1705 23.7334 12.0001C22.8028 12.0001 21.7441 12.0001 21.2774 12.0001C17.7986 11.9999 17.8805 14.6963 17.8805 15.0988Z" fill="#3B5998"/>
</svg>
