<svg width="16" height="14" viewBox="0 0 16 14" fill="none" xmlns="http://www.w3.org/2000/svg">
<path d="M6.78842 2.4157L6.78841 2.41568C6.2874 1.71535 5.48428 1 4.25 1C3.33361 1 2.51176 1.36879 1.91443 2.04003L6.78842 2.4157ZM6.78842 2.4157C6.85127 2.50355 6.91005 2.59231 6.96484 2.68072L7.81483 2.1539M6.78842 2.4157L7.81483 2.1539M7.81483 2.1539L6.96485 2.68072C7.43957 3.44665 8.56041 3.44667 9.03515 2.68075L8.25626 2.19796M7.81483 2.1539L8.25626 2.19796M8.25626 2.19796L9.03515 2.68074C9.08996 2.59231 9.14876 2.50352 9.21163 2.41562C9.71264 1.71532 10.5158 1 11.75 1C12.6664 1 13.4883 1.36878 14.0855 2.04001L8.25626 2.19796ZM2.39811 7.77814L2.39812 7.77815C3.32987 8.8757 4.69084 10.0283 6.37466 11.4494L6.37468 11.4494L6.37679 11.4512C6.89612 11.8895 7.43407 12.3436 8 12.8304C8.56405 12.3452 9.10032 11.8926 9.61809 11.4556L9.62541 11.4494L9.62543 11.4494C11.3092 10.0283 12.6701 8.87574 13.6019 7.77816L13.6019 7.77815C14.6124 6.5878 15 5.58241 15 4.56574C15 3.58091 14.6635 2.68957 14.0856 2.04003L2.39811 7.77814ZM2.39811 7.77814C1.38759 6.58783 1 5.58242 1 4.56574C1 3.58091 1.33651 2.68958 1.91439 2.04008L2.39811 7.77814Z" stroke="#FB5B1D" stroke-width="2"/>
</svg>
