<svg width="19" height="18" viewBox="0 0 19 18" fill="none" xmlns="http://www.w3.org/2000/svg">
<path fill-rule="evenodd" clip-rule="evenodd" d="M17.7526 8.29078C18.0489 7.81491 18.2127 7.26723 18.2268 6.70543C18.2408 6.14363 18.1045 5.58841 17.8324 5.09808C17.5602 4.60775 17.1622 4.20044 16.6801 3.91895C16.198 3.63746 15.6496 3.49224 15.0927 3.49845H14.8552V3.37385C14.8506 2.47548 14.4929 1.61561 13.8606 0.983063C13.2283 0.350515 12.373 -0.00303231 11.4826 2.6366e-05C11.0117 -0.00186603 10.5459 0.0981318 10.1165 0.293229C9.68717 0.488326 9.30428 0.773924 8.99362 1.13095C8.40679 0.705698 7.70214 0.477728 6.97962 0.47926C6.21176 0.468733 5.46596 0.738328 4.87946 1.23847C4.29297 1.73862 3.90525 2.43563 3.78764 3.20127C3.28207 3.41912 2.85027 3.78076 2.54493 4.24199C2.2396 4.70322 2.07394 5.24418 2.06814 5.7988C2.05835 5.99862 2.07755 6.19881 2.12514 6.39304C1.45402 6.60671 0.877154 7.04867 0.492961 7.64354C0.108767 8.23841 -0.0589215 8.9493 0.0184247 9.65501C0.0957709 10.3607 0.413377 11.0175 0.917109 11.5133C1.42084 12.0091 2.07946 12.3133 2.78064 12.3739C2.92743 12.906 3.2447 13.3742 3.68292 13.7053C4.12114 14.0365 4.65566 14.212 5.20313 14.2044C5.59238 14.2012 5.97581 14.109 6.32464 13.9346C6.67347 13.7603 6.97863 13.5085 7.21712 13.1981C7.92962 14.147 8.04362 15.3834 8.04362 17.3962C8.03954 17.4762 8.05231 17.5561 8.08107 17.6307C8.10984 17.7053 8.15394 17.7729 8.21049 17.829C8.26704 17.8851 8.33475 17.9286 8.40914 17.9564C8.48354 17.9842 8.56296 17.9958 8.64212 17.9905H11.1882C11.2655 17.9931 11.3423 17.978 11.413 17.9465C11.4838 17.9149 11.5465 17.8677 11.5966 17.8083C11.7081 17.7001 11.773 17.5522 11.7772 17.3962C11.6775 16.1958 11.9006 14.9905 12.4231 13.9074C12.6036 13.9074 12.7271 13.9648 12.8981 13.9648C13.6745 13.9518 14.4253 13.6826 15.0356 13.1981C15.3938 13.3393 15.7725 13.4203 16.1567 13.4377C16.9074 13.44 17.6284 13.1414 18.161 12.6076C18.6937 12.0738 18.9944 11.3486 18.9971 10.5911C18.9575 10.142 18.8265 9.70587 18.6124 9.31009C18.3982 8.91432 18.1055 8.56739 17.7526 8.29078ZM10.5326 16.869H9.17418C9.17418 14.8562 8.93668 13.3131 7.63518 11.9521V11.5974C8.26893 11.7196 8.92392 11.6598 9.52567 11.425C9.64024 11.8605 9.84057 12.2683 10.1148 12.624C10.389 12.9797 10.7314 13.2759 11.1216 13.4952C10.7837 14.5899 10.5858 15.7237 10.5326 16.869ZM16.0996 12.1917C15.7882 12.1781 15.4836 12.0964 15.2067 11.9521C15.0565 11.8513 14.9192 11.7322 14.7981 11.5974C14.6948 11.4815 14.5541 11.4064 14.401 11.3853C14.248 11.3643 14.0924 11.3987 13.9621 11.4824C13.8455 11.5814 13.7694 11.7203 13.7484 11.8725C13.7273 12.0247 13.7628 12.1794 13.8481 12.3067C13.9034 12.3721 13.9638 12.4331 14.0287 12.4889C13.697 12.7217 13.3021 12.8455 12.8981 12.8435C12.3536 12.8386 11.8325 12.6194 11.4457 12.2328C11.0589 11.8461 10.837 11.3224 10.8272 10.7732V10.5336C10.8757 10.065 11.0838 9.62799 11.4162 9.2971C11.5258 9.18653 11.5873 9.03661 11.5873 8.88023C11.5873 8.72385 11.5258 8.57382 11.4162 8.46324C11.3066 8.35267 11.1579 8.29055 11.0029 8.29055C10.8479 8.29055 10.6993 8.35267 10.5897 8.46324C10.1253 8.92834 9.81633 9.52818 9.70612 10.1789C9.34652 10.4373 8.91145 10.5664 8.47049 10.5455C8.02953 10.5246 7.60825 10.3551 7.27418 10.0639C7.07319 9.88702 6.91169 9.66904 6.80034 9.42452C6.68898 9.17999 6.63025 8.9145 6.62813 8.64541C6.6376 8.44283 6.67599 8.24269 6.74212 8.05117C6.7687 7.97387 6.77907 7.89182 6.77262 7.81026C6.76617 7.7287 6.74306 7.64938 6.70466 7.57732C6.66627 7.50525 6.61348 7.44194 6.54962 7.39152C6.48575 7.3411 6.41225 7.30463 6.33369 7.28435C6.25644 7.25746 6.17452 7.24693 6.09305 7.25334C6.01159 7.25976 5.93225 7.28301 5.86008 7.32167C5.7879 7.36033 5.7244 7.4135 5.67349 7.47798C5.62257 7.54247 5.58534 7.61692 5.56413 7.69654C5.45895 8.00095 5.4169 8.32392 5.44063 8.64541C5.4385 9.07876 5.52709 9.5077 5.70062 9.9041C5.87416 10.3005 6.12877 10.6555 6.44768 10.9458C6.60742 11.1721 6.69069 11.4443 6.68518 11.7221C6.68778 11.9023 6.65431 12.0813 6.58684 12.2482C6.51937 12.4151 6.4192 12.5667 6.2924 12.6937C6.1656 12.8208 6.01476 12.9206 5.84883 12.9875C5.68289 13.0544 5.50528 13.087 5.32663 13.0831C5.06795 13.0843 4.81415 13.0121 4.59413 12.8749C4.3741 12.7376 4.19671 12.5407 4.08213 12.3067C4.41351 12.2068 4.7323 12.0686 5.03213 11.8946C5.10169 11.8551 5.1613 11.7998 5.20626 11.7333C5.25122 11.6667 5.28034 11.5906 5.29138 11.5109C5.30241 11.4311 5.29505 11.3499 5.26986 11.2735C5.24468 11.1971 5.2023 11.1276 5.14613 11.0704C5.10572 11.0005 5.05029 10.9406 4.98389 10.8952C4.91749 10.8498 4.84183 10.82 4.76251 10.808C4.68319 10.7961 4.60224 10.8022 4.52559 10.8261C4.44894 10.8499 4.37853 10.8908 4.31963 10.9458C4.03383 11.1763 3.67855 11.3014 3.31264 11.3004H3.18913C2.67627 11.2992 2.1845 11.0943 1.82008 10.7302C1.45567 10.3662 1.24788 9.87206 1.24164 9.35467C1.24737 8.88054 1.42575 8.42513 1.74285 8.07515C2.05995 7.72518 2.4936 7.50513 2.96114 7.45692C3.30453 7.39463 3.65865 7.45923 3.95863 7.63898C4.02937 7.68399 4.11285 7.70426 4.19613 7.69654C4.31007 7.69925 4.42215 7.66668 4.51724 7.60329C4.61234 7.5399 4.6859 7.44872 4.72813 7.34191C4.75956 7.27218 4.77692 7.19677 4.77909 7.1202C4.78126 7.04363 4.7682 6.96745 4.74077 6.89602C4.71333 6.8246 4.67204 6.75936 4.61929 6.70426C4.56655 6.64916 4.50343 6.60524 4.43363 6.57509C4.05983 6.41136 3.66183 6.31104 3.25564 6.27803C3.19754 6.14906 3.17457 6.00674 3.18913 5.86584C3.19054 5.49738 3.31372 5.13994 3.53912 4.85004C3.76452 4.56014 4.07927 4.35428 4.43363 4.26516C4.65444 4.20356 4.88619 4.19312 5.11157 4.23462C5.33695 4.27611 5.55017 4.36846 5.73518 4.50477C5.83378 4.47117 5.94053 4.47117 6.03913 4.50477C6.13441 4.49564 6.22625 4.46397 6.30713 4.41234C6.38801 4.36072 6.45563 4.29066 6.50462 4.20771C6.55029 4.1425 6.58217 4.06849 6.59832 3.99032C6.61448 3.91216 6.61459 3.83147 6.59855 3.75328C6.58252 3.67509 6.55077 3.60105 6.5052 3.53578C6.45963 3.4705 6.40126 3.41542 6.33369 3.37385C5.93163 3.09551 5.45312 2.95132 4.96563 2.96165C5.12326 2.56594 5.39294 2.22581 5.74098 1.98377C6.08902 1.74172 6.50004 1.60855 6.92268 1.60071C7.22697 1.6093 7.52606 1.68184 7.8009 1.81388C8.07574 1.94592 8.32021 2.13449 8.51862 2.36741C8.65156 2.55741 8.77215 2.75591 8.87962 2.96165C8.92185 3.06847 8.99547 3.15976 9.09056 3.22315C9.18566 3.28654 9.29773 3.31899 9.41168 3.31628C9.49446 3.31833 9.57633 3.29856 9.64918 3.25884C9.79414 3.201 9.91146 3.08907 9.9769 2.94633C10.0423 2.80358 10.0509 2.64091 10.0007 2.49202C9.94367 2.30991 9.82017 2.13744 9.76317 1.95534C9.97091 1.69748 10.233 1.48965 10.5305 1.34705C10.828 1.20445 11.1533 1.13056 11.4826 1.13095C11.7685 1.1288 12.0521 1.18382 12.3169 1.29265C12.5817 1.40147 12.8226 1.56199 13.0257 1.76509C13.2287 1.96819 13.39 2.20977 13.5002 2.47599C13.6104 2.7422 13.6673 3.02779 13.6677 3.31628C13.6576 3.55642 13.6193 3.79449 13.5537 4.02554C13.4105 4.48584 13.1266 4.88859 12.7426 5.17612C12.3586 5.46365 11.8943 5.62124 11.4162 5.62622C11.3377 5.62178 11.2591 5.63408 11.1856 5.66237C11.1122 5.69067 11.0455 5.73428 10.9899 5.79037C10.9343 5.84646 10.891 5.91376 10.863 5.98787C10.835 6.06198 10.8228 6.14126 10.8272 6.22046C10.8229 6.29919 10.8353 6.37791 10.8636 6.45142C10.8918 6.52494 10.9352 6.59152 10.9909 6.64681C11.0466 6.70211 11.1133 6.74484 11.1867 6.77212C11.26 6.79941 11.3382 6.81067 11.4162 6.80512C12.0694 6.81622 12.7111 6.63068 13.2593 6.27218C13.8076 5.91367 14.2374 5.39849 14.4942 4.79236C14.6679 4.7267 14.8504 4.68793 15.0356 4.67735C15.5494 4.68083 16.0414 4.88768 16.4056 5.25334C16.7698 5.619 16.9772 6.1143 16.9831 6.63266C16.9937 7.03561 16.8699 7.43041 16.6317 7.75399C16.4363 7.7036 16.2344 7.68426 16.0331 7.69654C15.9546 7.6921 15.8761 7.7044 15.8026 7.73269C15.7292 7.76099 15.6625 7.8046 15.6069 7.86069C15.5513 7.91678 15.508 7.98408 15.48 8.05819C15.4519 8.1323 15.4397 8.21158 15.4442 8.29078C15.4399 8.36951 15.4523 8.44823 15.4806 8.52174C15.5088 8.59526 15.5522 8.66184 15.6079 8.71713C15.6636 8.77243 15.7303 8.81516 15.8036 8.84244C15.877 8.86973 15.9552 8.88099 16.0331 8.87544C16.2374 8.88919 16.4387 8.93112 16.6317 9.00004C16.9465 9.11003 17.2188 9.3175 17.4099 9.59288C17.601 9.86826 17.701 10.1975 17.6956 10.5336C17.7016 10.7489 17.6647 10.9633 17.5872 11.1641C17.5097 11.3648 17.3932 11.5478 17.2444 11.7024C17.0957 11.857 16.9177 11.9799 16.7211 12.0639C16.5244 12.148 16.3131 12.1914 16.0996 12.1917Z" fill="#3AC457"/>
</svg>
