<svg width="100" height="50" viewBox="0 0 100 50" fill="none" xmlns="http://www.w3.org/2000/svg">
<g filter="url(#filter0_d_1_408)">
<rect x="1" width="98" height="46" rx="6" fill="white"/>
</g>
<path d="M26.3691 18.9697L22.3906 28H20.6475L24.6191 19.3799H19.4717V18.0469H26.3691V18.9697ZM34.3262 18.9697L30.3477 28H28.6045L32.5762 19.3799H27.4287V18.0469H34.3262V18.9697ZM42.1465 23.8096C42.1465 25.2406 41.8776 26.3206 41.3398 27.0498C40.8066 27.7744 39.9932 28.1367 38.8994 28.1367C37.8239 28.1367 37.0127 27.7835 36.4658 27.0771C35.9235 26.3662 35.6455 25.3158 35.6318 23.9258V22.2031C35.6318 20.7721 35.8984 19.6989 36.4316 18.9834C36.9694 18.2679 37.7874 17.9102 38.8857 17.9102C39.9749 17.9102 40.7861 18.2588 41.3193 18.9561C41.8571 19.6533 42.1328 20.6969 42.1465 22.0869V23.8096ZM40.4854 21.9502C40.4854 21.016 40.3577 20.3324 40.1025 19.8994C39.8473 19.4619 39.4417 19.2432 38.8857 19.2432C38.3434 19.2432 37.9447 19.4505 37.6895 19.8652C37.4342 20.2754 37.2998 20.918 37.2861 21.793V24.0488C37.2861 24.9785 37.416 25.6712 37.6758 26.127C37.9355 26.5827 38.3434 26.8105 38.8994 26.8105C39.4326 26.8105 39.8268 26.6009 40.082 26.1816C40.3372 25.7578 40.4717 25.097 40.4854 24.1992V21.9502ZM51.9561 26.4209H49.7549V28H48.0322V26.4209H46.6309V25.0332H48.0322V24.3018H46.6309V22.9141H48.0322V18.0469H51.8398C52.9382 18.0469 53.8154 18.334 54.4717 18.9082C55.1279 19.4779 55.4561 20.2367 55.4561 21.1846C55.4561 22.1507 55.1439 22.9095 54.5195 23.4609C53.8952 24.0078 53.027 24.2881 51.915 24.3018H49.7549V25.0332H51.9561V26.4209ZM49.7549 22.9141H51.8125C52.4323 22.9141 52.9062 22.7705 53.2344 22.4834C53.5625 22.1963 53.7266 21.7679 53.7266 21.1982C53.7266 20.6878 53.5648 20.2708 53.2412 19.9473C52.9222 19.6237 52.4801 19.4551 51.915 19.4414H49.7549V22.9141Z" fill="#404040"/>
<path d="M66.231 20.9615L67.8463 17.1923" stroke="#F0AF3B" stroke-width="2" stroke-linecap="round"/>
<path d="M73.7692 20.9615L72.1538 17.1923" stroke="#F0AF3B" stroke-width="2" stroke-linecap="round"/>
<path d="M64.2458 20.8845L75.7542 20.8845L74.2882 27.4999H65.7118L64.2458 20.8845Z" fill="white" stroke="#F0AF3B" stroke-width="2"/>
<rect x="67.5" y="23" width="1" height="2" rx="0.5" fill="#F0AF3B"/>
<rect x="69.5" y="23" width="1" height="2" rx="0.5" fill="#F0AF3B"/>
<rect x="71.5" y="23" width="1" height="2" rx="0.5" fill="#F0AF3B"/>
<defs>
<filter id="filter0_d_1_408" x="0" y="0" width="100" height="50" filterUnits="userSpaceOnUse" color-interpolation-filters="sRGB">
<feFlood flood-opacity="0" result="BackgroundImageFix"/>
<feColorMatrix in="SourceAlpha" type="matrix" values="0 0 0 0 0 0 0 0 0 0 0 0 0 0 0 0 0 0 127 0" result="hardAlpha"/>
<feOffset dy="3"/>
<feGaussianBlur stdDeviation="0.5"/>
<feColorMatrix type="matrix" values="0 0 0 0 0 0 0 0 0 0 0 0 0 0 0 0 0 0 0.05 0"/>
<feBlend mode="normal" in2="BackgroundImageFix" result="effect1_dropShadow_1_408"/>
<feBlend mode="normal" in="SourceGraphic" in2="effect1_dropShadow_1_408" result="shape"/>
</filter>
</defs>
</svg>
