<svg width="18" height="15" viewBox="0 0 18 15" fill="none" xmlns="http://www.w3.org/2000/svg">
<mask id="path-1-inside-1_1_888" fill="white">
<path d="M15.7768 0C14.4893 0 13.4435 1.24334 13.0396 1.92905C13.013 1.97431 13.0069 2.02837 13.021 2.07899L13.5139 3.85353C13.5379 3.94009 13.6168 4 13.7066 4H14.5324C14.6131 4 14.6855 3.95152 14.719 3.87808C14.9256 3.42578 15.3428 2.71319 15.7384 2.66884C15.7636 2.66601 15.7895 2.66151 15.8132 2.65235C16.4602 2.40278 16.9566 2.45849 17.3154 2.63186C17.5123 2.72697 17.999 2.55195 17.999 2.33333V0.847692C17.999 0.730723 17.9595 0.615233 17.8671 0.543518C17.5684 0.311671 16.8934 0 15.7768 0Z"/>
</mask>
<path d="M15.7768 0C14.4893 0 13.4435 1.24334 13.0396 1.92905C13.013 1.97431 13.0069 2.02837 13.021 2.07899L13.5139 3.85353C13.5379 3.94009 13.6168 4 13.7066 4H14.5324C14.6131 4 14.6855 3.95152 14.719 3.87808C14.9256 3.42578 15.3428 2.71319 15.7384 2.66884C15.7636 2.66601 15.7895 2.66151 15.8132 2.65235C16.4602 2.40278 16.9566 2.45849 17.3154 2.63186C17.5123 2.72697 17.999 2.55195 17.999 2.33333V0.847692C17.999 0.730723 17.9595 0.615233 17.8671 0.543518C17.5684 0.311671 16.8934 0 15.7768 0Z" fill="#FB5B1D"/>
<path d="M13.0396 1.92905L13.9013 2.43649H13.9013L13.0396 1.92905ZM17.8671 0.543518L17.254 1.33351L17.254 1.33351L17.8671 0.543518ZM17.3154 2.63186L16.8804 3.53227L16.8804 3.53227L17.3154 2.63186ZM15.8132 2.65235L15.4533 1.71936L15.4533 1.71936L15.8132 2.65235ZM15.7384 2.66884L15.8498 3.66262H15.8498L15.7384 2.66884ZM14.719 3.87808L13.8094 3.46261L14.719 3.87808ZM13.5139 3.85353L14.4774 3.58589L14.4774 3.58588L13.5139 3.85353ZM13.021 2.07899L12.0574 2.34664L12.0574 2.34664L13.021 2.07899ZM13.9013 2.43649C14.0562 2.17357 14.3486 1.78458 14.7194 1.47361C15.0963 1.15757 15.4583 1 15.7768 1V-1C14.8077 -1 14.0031 -0.5359 13.4343 -0.0588499C12.8593 0.423283 12.4269 0.998815 12.178 1.4216L13.9013 2.43649ZM15.7768 1C16.7156 1 17.1627 1.26263 17.254 1.33351L18.4802 -0.246475C17.9741 -0.639286 17.0711 -1 15.7768 -1V1ZM16.999 0.847692V2.33333H18.999V0.847692H16.999ZM17.7505 1.73145C17.1129 1.42338 16.3259 1.38277 15.4533 1.71936L16.1731 3.58534C16.5945 3.42279 16.8004 3.4936 16.8804 3.53227L17.7505 1.73145ZM15.627 1.67507C15.2606 1.71614 14.9822 1.89648 14.8082 2.03876C14.6254 2.18823 14.4747 2.36405 14.3568 2.52178C14.1205 2.83793 13.9306 3.1974 13.8094 3.46261L15.6286 4.29355C15.7141 4.10647 15.836 3.88349 15.9588 3.71918C16.0205 3.63669 16.0611 3.59777 16.0743 3.58702C16.0962 3.56909 16.0183 3.64372 15.8498 3.66262L15.627 1.67507ZM14.5324 3H13.7066V5H14.5324V3ZM14.4774 3.58588L13.9845 1.81135L12.0574 2.34664L12.5504 4.12117L14.4774 3.58588ZM13.7066 3C14.066 3 14.3812 3.23963 14.4774 3.58589L12.5504 4.12117C12.6946 4.64056 13.1675 5 13.7066 5V3ZM15.4533 1.71936C15.5031 1.70018 15.5447 1.68976 15.5724 1.684C15.5999 1.67825 15.62 1.67585 15.627 1.67507L15.8498 3.66262C15.908 3.65609 16.0321 3.63976 16.1731 3.58534L15.4533 1.71936ZM16.999 2.33333C16.999 2.0019 17.1801 1.80837 17.236 1.75604C17.3018 1.69434 17.351 1.67526 17.356 1.67325C17.3658 1.66925 17.3832 1.66296 17.4176 1.65993C17.4311 1.65874 17.57 1.64425 17.7505 1.73145L16.8804 3.53227C17.1593 3.66703 17.4328 3.66632 17.5929 3.65223C17.774 3.6363 17.9499 3.59042 18.1061 3.52724C18.2574 3.46603 18.4406 3.36815 18.6038 3.21512C18.7571 3.07146 18.999 2.77407 18.999 2.33333H16.999ZM17.254 1.33351C17.0286 1.15859 16.999 0.932531 16.999 0.847692H18.999C18.999 0.528915 18.8904 0.071879 18.4802 -0.246476L17.254 1.33351ZM13.8094 3.46261C13.9314 3.19545 14.2049 3 14.5324 3V5C15.0213 5 15.4395 4.70759 15.6286 4.29355L13.8094 3.46261ZM12.178 1.4216C12.0065 1.71283 11.9746 2.04841 12.0574 2.34664L13.9845 1.81135C14.0392 2.00834 14.0195 2.2358 13.9013 2.43649L12.178 1.4216Z" fill="#FB5B1D" mask="url(#path-1-inside-1_1_888)"/>
<path d="M12.4222 1.81365L12.4222 1.81367L12.4283 1.81353C13.0372 1.79996 13.6344 1.96165 14.1451 2.27523L14.6314 2.64665C14.6566 2.67231 14.6831 2.69668 14.7109 2.71963C14.7123 2.72104 14.714 2.7228 14.7162 2.72497L14.7456 2.75547L15.1488 3.28634C15.4639 3.86385 15.589 4.51942 15.509 5.1657C15.4265 5.83211 15.1293 6.46009 14.655 6.95865L14.6308 6.98408L14.6084 7.01115C12.4854 9.58166 9.75319 11.6165 6.64321 12.9399C5.26587 13.5055 3.80403 13.848 2.31584 13.9552C3.19896 13.1856 3.97028 12.2684 4.65113 11.3179C5.72471 9.81929 6.62523 8.16226 7.39828 6.7398L7.404 6.72926L7.40414 6.72902L7.44151 6.66029L7.44152 6.66028C7.95103 5.72333 8.40509 4.88932 8.84781 4.19134C9.29628 3.4843 9.68555 2.99537 10.0385 2.70572L10.044 2.7012L10.0494 2.6966C10.7054 2.1424 11.5453 1.8278 12.4222 1.81365Z" fill="white" stroke="#FB5B1D" stroke-width="2"/>
<path d="M8.99902 4H11.5263C11.6368 4 11.7263 4.08954 11.7263 4.2V5.66175C11.7263 5.81387 11.8894 5.9103 12.0227 5.83699L13.3119 5.12792C13.4284 5.06384 13.5738 5.12918 13.6033 5.25884L13.999 7" stroke="#FB5B1D"/>
</svg>
