<svg width="48" height="50" viewBox="0 0 48 50" fill="none" xmlns="http://www.w3.org/2000/svg">
<g filter="url(#filter0_d_1_419)">
<rect x="1" width="46" height="46" rx="6" fill="white"/>
</g>
<path d="M22.7884 18.4157L22.7884 18.4157C22.2874 17.7154 21.4843 17 20.25 17C19.3336 17 18.5118 17.3688 17.9144 18.04L22.7884 18.4157ZM22.7884 18.4157C22.8513 18.5035 22.91 18.5923 22.9648 18.6807C23.4396 19.4466 24.5604 19.4467 25.0352 18.6807C25.09 18.5923 25.1487 18.5036 25.2116 18.4157L22.7884 18.4157ZM18.3981 23.7781L18.3981 23.7782C19.3299 24.8757 20.6908 26.0283 22.3747 27.4494L22.3747 27.4494L22.3767 27.4512C22.8961 27.8895 23.434 28.3436 24 28.8304C24.564 28.3453 25.1002 27.8927 25.6179 27.4557L25.6254 27.4494L25.6254 27.4494C27.3092 26.0283 28.6701 24.8757 29.6019 23.7782L29.6019 23.7781C30.6124 22.5878 31 21.5824 31 20.5657C31 19.5809 30.6635 18.6895 30.0855 18.04C29.4883 17.3688 28.6664 17 27.75 17C26.5158 17 25.7126 17.7153 25.2116 18.4156L18.3981 23.7781ZM18.3981 23.7781C17.3876 22.5878 17 21.5824 17 20.5657C17 19.5809 17.3365 18.6896 17.9144 18.0401L18.3981 23.7781ZM24.3983 17.8338L24.3988 17.8342L24.3983 17.8338Z" stroke="#FB5B1D" stroke-width="2"/>
<defs>
<filter id="filter0_d_1_419" x="0" y="0" width="48" height="50" filterUnits="userSpaceOnUse" color-interpolation-filters="sRGB">
<feFlood flood-opacity="0" result="BackgroundImageFix"/>
<feColorMatrix in="SourceAlpha" type="matrix" values="0 0 0 0 0 0 0 0 0 0 0 0 0 0 0 0 0 0 127 0" result="hardAlpha"/>
<feOffset dy="3"/>
<feGaussianBlur stdDeviation="0.5"/>
<feColorMatrix type="matrix" values="0 0 0 0 0 0 0 0 0 0 0 0 0 0 0 0 0 0 0.05 0"/>
<feBlend mode="normal" in2="BackgroundImageFix" result="effect1_dropShadow_1_419"/>
<feBlend mode="normal" in="SourceGraphic" in2="effect1_dropShadow_1_419" result="shape"/>
</filter>
</defs>
</svg>
