<svg width="20" height="18" viewBox="0 0 20 18" fill="none" xmlns="http://www.w3.org/2000/svg">
<path d="M18.0147 7.44157L18.0114 7.44472L14.5815 10.7047L14.562 10.7233L14.5435 10.7428C14.4138 10.8801 14.3152 11.0443 14.2552 11.2244C14.1957 11.4029 14.1752 11.5935 14.1968 11.7828L14.2002 11.8128L14.2054 11.8426L15.0155 16.4526L15.0165 16.4585C15.0287 16.5256 15.0212 16.5947 14.9949 16.6575C14.9685 16.7205 14.9245 16.7743 14.8682 16.8126L14.8557 16.8211L14.8435 16.8299C14.7723 16.8815 14.6866 16.9094 14.5987 16.9095L14.5929 16.9096C14.5221 16.9101 14.4521 16.8934 14.3889 16.8608L14.3885 16.8606L10.1584 14.6807L10.1412 14.6718L10.1236 14.6635C9.94948 14.5822 9.759 14.5396 9.56535 14.5396C9.37131 14.5396 9.18098 14.5824 9.00726 14.6635L8.98965 14.6718L8.97237 14.6807L4.74233 16.8606L4.74232 16.8606L4.737 16.8634C4.66647 16.9003 4.5871 16.9167 4.50787 16.9109C4.42863 16.9051 4.35253 16.8772 4.28815 16.8305L4.27556 16.8213L4.26268 16.8126C4.2063 16.7742 4.16227 16.7204 4.13594 16.6575C4.1096 16.5947 4.10207 16.5256 4.11429 16.4585L4.11532 16.4526L4.92532 11.8426L4.93055 11.8128L4.93398 11.7828C4.95545 11.5944 4.9354 11.4038 4.8756 11.2244C4.81557 11.0443 4.717 10.8801 4.58729 10.7428L4.56881 10.7233L4.54931 10.7047L1.11932 7.44472L1.11932 7.44471L1.116 7.44158C1.06472 7.39328 1.02836 7.33136 1.01116 7.26307C0.994073 7.19518 0.996653 7.12375 1.01858 7.0573C1.04328 6.98471 1.08764 6.92043 1.14681 6.87155C1.20633 6.82238 1.27838 6.79084 1.35481 6.78047L1.35482 6.78049L1.36063 6.77967L6.08823 6.10997C6.29774 6.08106 6.49719 6.00091 6.66878 5.87612C6.83641 5.75421 6.97321 5.59283 7.06593 5.40475L9.178 1.23035C9.2154 1.16156 9.27047 1.10392 9.33758 1.06342C9.40637 1.0219 9.48505 1 9.56535 1C9.64573 1 9.72453 1.02195 9.79324 1.06342C9.86035 1.10392 9.91542 1.16156 9.95282 1.23035L12.0649 5.40482C12.1576 5.59287 12.2944 5.75422 12.462 5.87612C12.6339 6.00112 12.8335 6.08112 13.0427 6.10998C13.0444 6.11021 13.046 6.11043 13.0477 6.11065L17.7702 6.77967L17.7702 6.77968L17.776 6.78047C17.8524 6.79084 17.9245 6.82238 17.984 6.87155C18.0433 6.92049 18.0876 6.98479 18.1123 7.05722C18.1342 7.12354 18.1368 7.19499 18.1197 7.26307C18.1025 7.33122 18.0661 7.39318 18.0147 7.44157Z" fill="#F0AF3B" stroke="#F0AF3B" stroke-width="2"/>
</svg>
